<svg xmlns="http://www.w3.org/2000/svg" xmlns:xlink="http://www.w3.org/1999/xlink" width="1587" zoomAndPan="magnify" viewBox="0 0 1190.25 1683.749949" height="2245" preserveAspectRatio="xMidYMid meet" version="1.0"><defs><clipPath id="c09f1b6317"><path d="M 0 0.40625 L 1189.5 0.40625 L 1189.5 1683.09375 L 0 1683.09375 Z M 0 0.40625 " clip-rule="nonzero"/></clipPath><clipPath id="692defdccc"><path d="M 391 694.230469 L 604 694.230469 L 604 951 L 391 951 Z M 391 694.230469 " clip-rule="nonzero"/></clipPath><clipPath id="bb71d0d5c6"><path d="M 421 929 L 832.890625 929 L 832.890625 958 L 421 958 Z M 421 929 " clip-rule="nonzero"/></clipPath><clipPath id="c5c39f2563"><path d="M 421 957 L 832.890625 957 L 832.890625 971 L 421 971 Z M 421 957 " clip-rule="nonzero"/></clipPath><clipPath id="5cd5fc4e81"><path d="M 389 984 L 820 984 L 820 989.542969 L 389 989.542969 Z M 389 984 " clip-rule="nonzero"/></clipPath></defs><g clip-path="url(#c09f1b6317)"><path fill="#ffffff" d="M 0 0.40625 L 1189.5 0.40625 L 1189.5 1683.09375 L 0 1683.09375 Z M 0 0.40625 " fill-opacity="1" fill-rule="nonzero"/><path fill="#ffffff" d="M 0 0.40625 L 1189.5 0.40625 L 1189.5 1683.09375 L 0 1683.09375 Z M 0 0.40625 " fill-opacity="1" fill-rule="nonzero"/></g><path fill="#ff7a4d" d="M 743.085938 861.199219 C 740.050781 855.125 734.269531 850.855469 728.105469 848.101562 C 721.941406 845.351562 715.207031 844.117188 708.570312 842.976562 C 709.613281 850.285156 715.300781 856.359375 722.035156 859.492188 C 728.671875 862.527344 735.785156 861.671875 743.085938 861.199219 Z M 743.085938 861.199219 " fill-opacity="1" fill-rule="nonzero"/><path fill="#ff7a4d" d="M 753.421875 840.699219 C 760.914062 832.347656 770.492188 825.894531 781.019531 822.097656 C 791.542969 818.304688 803.113281 817.164062 814.113281 818.96875 C 810.796875 822.953125 808.707031 827.222656 805.105469 831.019531 C 800.269531 836.144531 793.441406 838.992188 786.613281 840.320312 C 779.785156 841.648438 772.671875 841.460938 765.65625 841.269531 C 761.390625 840.984375 757.691406 840.796875 753.421875 840.699219 Z M 753.421875 840.699219 " fill-opacity="1" fill-rule="nonzero"/><path fill="#ff7a4d" d="M 749.914062 879.800781 C 750.199219 874.105469 753.234375 868.695312 757.5 864.898438 C 761.769531 861.105469 767.171875 858.636719 772.671875 857.214844 C 778.171875 855.789062 783.957031 855.125 789.648438 854.554688 C 783.957031 858.445312 781.777344 865.46875 776.371094 869.835938 C 769.164062 875.527344 757.785156 874.769531 749.914062 879.800781 Z M 749.914062 879.800781 " fill-opacity="1" fill-rule="nonzero"/><path fill="#ff7a4d" d="M 747.734375 833.960938 C 740.050781 822.765625 738.820312 807.484375 744.605469 795.242188 C 748.398438 787.269531 754.84375 780.722656 762.054688 775.597656 C 769.261719 770.472656 777.320312 766.675781 785.285156 762.878906 C 792.777344 773.984375 793.820312 788.597656 789.269531 801.222656 C 784.71875 813.84375 774.097656 824.09375 761.292969 827.886719 C 758.828125 828.648438 756.363281 829.121094 753.992188 830.070312 C 751.621094 830.925781 749.15625 831.875 747.734375 833.960938 Z M 747.734375 833.960938 " fill-opacity="1" fill-rule="nonzero"/><path fill="#ff7a4d" d="M 747.449219 837.285156 C 749.914062 824.472656 744.507812 810.425781 734.171875 802.738281 C 726.015625 796.664062 715.398438 794.386719 707.621094 787.746094 C 706.578125 796.382812 708.09375 804.828125 712.265625 812.515625 C 716.441406 820.203125 722.984375 826.464844 730.664062 830.167969 C 736.542969 832.917969 742.421875 833.203125 747.449219 837.285156 Z M 747.449219 837.285156 " fill-opacity="1" fill-rule="nonzero"/><path fill="#f9a97e" d="M 528.582031 934.652344 C 532.945312 918.519531 523.460938 899.917969 507.910156 893.84375 C 502.503906 891.757812 496.433594 891 491.695312 887.675781 C 484.296875 882.550781 481.832031 872.964844 478.984375 864.519531 C 476.140625 855.980469 470.925781 846.773438 462.011719 845.351562 C 455.941406 844.402344 449.96875 847.53125 444.375 850.191406 C 438.777344 852.847656 432.140625 855.03125 426.546875 852.183594 C 420.570312 849.144531 418.296875 841.554688 412.605469 837.949219 C 408.339844 835.289062 402.457031 835.574219 398.476562 838.613281 C 394.871094 841.363281 392.785156 846.109375 388.613281 847.914062 C 383.871094 850 378.5625 847.628906 373.628906 846.015625 C 368.699219 844.402344 362.15625 844.210938 359.59375 848.671875 C 356.941406 853.320312 360.921875 859.207031 365.664062 861.671875 C 370.40625 864.140625 376 864.898438 380.269531 868.125 C 379.128906 872.871094 378.371094 877.046875 378.75 881.886719 C 379.128906 886.726562 381.40625 891.664062 385.671875 894.035156 C 390.320312 896.597656 396.105469 895.554688 401.414062 894.984375 C 406.726562 894.414062 412.984375 894.699219 416.207031 898.96875 C 419.242188 902.957031 418.390625 908.460938 419.054688 913.394531 C 420.382812 923.074219 428.726562 931.332031 438.304688 932.46875 C 444.277344 933.230469 450.253906 931.425781 456.226562 930.855469 C 462.203125 930.289062 468.933594 931.140625 472.820312 935.792969 C 474.8125 938.164062 475.667969 941.296875 477.277344 943.953125 C 482.496094 952.875 494.632812 955.910156 504.402344 952.96875 C 514.359375 950.214844 525.925781 944.617188 528.582031 934.652344 Z M 528.582031 934.652344 " fill-opacity="1" fill-rule="nonzero"/><path fill="#39446c" d="M 493.304688 929.71875 C 491.3125 926.679688 488.941406 923.835938 486.667969 921.082031 C 484.296875 918.234375 481.925781 915.484375 479.460938 912.824219 C 474.527344 907.511719 469.21875 902.480469 463.71875 897.734375 C 458.125 892.992188 452.339844 888.53125 446.269531 884.449219 C 440.199219 880.367188 433.941406 876.667969 427.492188 873.347656 C 421.046875 870.023438 414.40625 866.988281 407.578125 864.519531 C 406.726562 864.234375 405.871094 863.949219 405.019531 863.667969 C 404.449219 863.476562 404.070312 864.332031 404.640625 864.617188 C 407.957031 866.039062 411.371094 867.273438 414.691406 868.695312 C 418.011719 870.121094 421.328125 871.636719 424.554688 873.25 C 431.003906 876.476562 437.261719 880.085938 443.332031 884.070312 C 449.398438 888.054688 455.183594 892.328125 460.777344 896.976562 C 466.375 901.628906 471.683594 906.5625 476.710938 911.875 C 481.734375 917.097656 486.382812 922.601562 490.746094 928.390625 C 491.3125 929.148438 491.882812 929.8125 492.355469 930.570312 C 492.738281 930.953125 493.589844 930.289062 493.304688 929.71875 Z M 493.304688 929.71875 " fill-opacity="1" fill-rule="nonzero"/><g clip-path="url(#692defdccc)"><path fill="#379ab4" d="M 588.894531 938.355469 C 598.566406 928.484375 603.972656 914.535156 603.402344 900.679688 C 602.832031 886.824219 596.195312 873.441406 585.667969 864.425781 C 576.566406 856.644531 564.144531 851.328125 560.160156 840.035156 C 556.746094 830.355469 561.015625 819.820312 561.015625 809.574219 C 561.015625 792.964844 548.210938 777.210938 531.902344 773.984375 C 524.03125 772.371094 514.453125 772.75 509.804688 766.203125 C 504.304688 758.515625 510.089844 747.886719 508.953125 738.585938 C 507.8125 728.429688 498.519531 720.933594 488.753906 717.800781 C 478.984375 714.671875 468.554688 715.050781 458.40625 713.816406 C 445.039062 712.394531 431.855469 708.121094 420.003906 701.480469 C 416.113281 699.296875 412.226562 696.828125 407.957031 695.59375 C 403.691406 694.363281 398.570312 694.835938 395.25 697.96875 C 389.847656 703.09375 391.933594 712.109375 395.15625 718.847656 C 402.457031 734.316406 413.078125 748.265625 426.167969 759.371094 C 427.871094 769.238281 420.285156 777.019531 417.15625 786.605469 C 412.605469 800.460938 418.390625 817.070312 430.625 825.136719 C 437.546875 829.691406 446.363281 831.78125 451.199219 838.515625 C 459.546875 850 451.484375 868.125 460.019531 879.421875 C 470.546875 893.277344 496.71875 885.113281 506.769531 899.347656 C 511.226562 905.707031 510.660156 914.25 512.460938 921.746094 C 516.160156 936.550781 530.097656 947.558594 545.175781 950.121094 C 560.253906 952.683594 578.179688 949.269531 588.894531 938.355469 Z M 588.894531 938.355469 " fill-opacity="1" fill-rule="nonzero"/></g><path fill="#39446c" d="M 555.703125 916.621094 C 553.046875 903.429688 549.160156 890.429688 544.609375 877.808594 C 540.054688 865.183594 534.746094 852.753906 528.675781 840.796875 C 522.609375 828.742188 515.78125 817.070312 508.289062 805.871094 C 500.796875 794.671875 492.640625 783.949219 483.917969 773.792969 C 475.097656 763.640625 465.710938 753.863281 455.5625 744.945312 C 454.332031 743.804688 453.003906 742.667969 451.675781 741.621094 C 451.199219 741.242188 450.441406 741.90625 450.917969 742.382812 C 460.96875 751.304688 470.546875 760.699219 479.460938 770.757812 C 488.46875 780.816406 496.71875 791.445312 504.402344 802.550781 C 511.988281 813.558594 518.910156 825.042969 525.167969 836.902344 C 531.425781 848.765625 536.925781 861.105469 541.574219 873.632812 C 546.316406 886.253906 550.109375 899.066406 553.332031 912.160156 C 553.710938 913.773438 554.1875 915.386719 554.566406 916.90625 C 554.851562 917.476562 555.796875 917.285156 555.703125 916.621094 Z M 555.703125 916.621094 " fill-opacity="1" fill-rule="nonzero"/><g clip-path="url(#bb71d0d5c6)"><path fill="#ff7a4d" d="M 832.890625 957.429688 L 421.234375 957.429688 L 460.589844 929.054688 L 793.535156 929.054688 L 807.097656 938.828125 Z M 832.890625 957.429688 " fill-opacity="1" fill-rule="nonzero"/></g><path fill="#ff7a4d" d="M 807.097656 938.828125 L 726.679688 938.828125 L 726.679688 929.054688 L 793.535156 929.054688 Z M 807.097656 938.828125 " fill-opacity="1" fill-rule="nonzero"/><path fill="#39446c" d="M 469.976562 792.488281 L 630.523438 792.488281 L 630.523438 912.824219 L 469.976562 912.824219 Z M 469.976562 792.488281 " fill-opacity="1" fill-rule="nonzero"/><path fill="#39446c" d="M 630.523438 870.878906 L 630.523438 912.730469 L 469.976562 912.730469 L 469.976562 868.222656 C 486.191406 841.269531 515.78125 823.238281 549.539062 823.238281 C 584.34375 823.332031 614.6875 842.503906 630.523438 870.878906 Z M 630.523438 870.878906 " fill-opacity="1" fill-rule="nonzero"/><path fill="#39446c" d="M 509.996094 925.828125 L 601.222656 925.828125 L 601.222656 932.183594 L 509.996094 932.183594 Z M 509.996094 925.828125 " fill-opacity="1" fill-rule="nonzero"/><path fill="#39446c" d="M 539.773438 912.824219 L 571.445312 912.824219 L 571.445312 925.828125 L 539.773438 925.828125 Z M 539.773438 912.824219 " fill-opacity="1" fill-rule="nonzero"/><path fill="#ffffff" d="M 476.046875 799.417969 L 625.023438 799.417969 L 625.023438 888.53125 L 476.046875 888.53125 Z M 476.046875 799.417969 " fill-opacity="1" fill-rule="nonzero"/><path fill="#ff7a4d" d="M 563.289062 842.789062 L 620.945312 842.789062 L 620.945312 888.4375 L 563.289062 888.4375 Z M 563.289062 842.789062 " fill-opacity="1" fill-rule="nonzero"/><path fill="#ff7a4d" d="M 563.289062 811.945312 L 620.945312 811.945312 L 620.945312 828.554688 L 563.289062 828.554688 Z M 563.289062 811.945312 " fill-opacity="1" fill-rule="nonzero"/><path fill="#379ab4" d="M 554.660156 843.453125 L 546.21875 838.515625 L 546.21875 811.945312 L 491.125 811.945312 L 491.125 869.738281 L 546.21875 869.738281 L 546.21875 848.292969 Z M 554.660156 843.453125 " fill-opacity="1" fill-rule="nonzero"/><path fill="#ffffff" d="M 595.429688 854.847656 C 596.25 855.121094 597.039062 855.472656 597.789062 855.902344 C 598.542969 856.328125 599.246094 856.828125 599.898438 857.394531 C 600.550781 857.960938 601.144531 858.589844 601.675781 859.273438 C 602.207031 859.957031 602.664062 860.6875 603.050781 861.460938 C 603.4375 862.234375 603.746094 863.039062 603.976562 863.875 C 604.203125 864.710938 604.347656 865.5625 604.410156 866.425781 C 604.472656 867.289062 604.449219 868.152344 604.339844 869.011719 C 604.230469 869.871094 604.042969 870.710938 603.765625 871.53125 C 603.492188 872.355469 603.144531 873.140625 602.714844 873.894531 C 602.285156 874.644531 601.789062 875.347656 601.21875 876.003906 C 600.652344 876.65625 600.027344 877.25 599.34375 877.78125 C 598.660156 878.3125 597.933594 878.773438 597.15625 879.160156 C 596.382812 879.546875 595.578125 879.855469 594.746094 880.082031 C 593.910156 880.3125 593.0625 880.457031 592.195312 880.519531 C 591.332031 880.582031 590.472656 880.558594 589.613281 880.449219 C 588.753906 880.339844 587.914062 880.148438 587.09375 879.875 C 586.273438 879.601562 585.488281 879.25 584.734375 878.820312 C 583.984375 878.390625 583.28125 877.894531 582.625 877.328125 C 581.972656 876.757812 581.378906 876.132812 580.847656 875.449219 C 580.320312 874.765625 579.859375 874.035156 579.472656 873.261719 C 579.085938 872.484375 578.777344 871.679688 578.550781 870.84375 C 578.320312 870.011719 578.175781 869.160156 578.113281 868.296875 C 578.054688 867.433594 578.078125 866.570312 578.183594 865.710938 C 578.292969 864.851562 578.484375 864.011719 578.757812 863.191406 C 579.03125 862.367188 579.382812 861.582031 579.8125 860.828125 C 580.238281 860.074219 580.738281 859.371094 581.304688 858.71875 C 581.871094 858.0625 582.496094 857.472656 583.179688 856.941406 C 583.863281 856.410156 584.59375 855.949219 585.367188 855.5625 C 586.140625 855.175781 586.945312 854.867188 587.78125 854.636719 C 588.613281 854.410156 589.464844 854.265625 590.328125 854.203125 C 591.191406 854.140625 592.050781 854.164062 592.910156 854.273438 C 593.769531 854.382812 594.609375 854.574219 595.429688 854.847656 Z M 595.429688 854.847656 " fill-opacity="1" fill-rule="nonzero"/><path fill="#ff7a4d" d="M 586.808594 861.863281 L 586.808594 872.777344 L 597.902344 867.367188 Z M 586.808594 861.863281 " fill-opacity="1" fill-rule="nonzero"/><path fill="#ff7a4d" d="M 535.21875 825.707031 C 531.523438 825.324219 527.730469 825.136719 524.03125 825.042969 C 520.238281 824.945312 516.539062 824.945312 512.746094 825.042969 C 510.660156 825.136719 508.574219 825.230469 506.390625 825.324219 C 506.109375 825.324219 505.917969 825.515625 505.824219 825.707031 C 504.683594 829.597656 503.453125 833.488281 502.3125 837.378906 C 502.125 837.949219 501.933594 838.515625 501.839844 839.085938 C 501.367188 837.949219 500.988281 836.808594 500.511719 835.765625 C 499.847656 834.058594 499.183594 832.445312 498.519531 830.734375 C 498.238281 830.167969 497.382812 830.546875 497.574219 831.113281 C 498.140625 832.824219 498.804688 834.4375 499.46875 836.050781 C 500.132812 837.664062 500.796875 839.371094 501.367188 840.984375 C 501.554688 841.460938 502.3125 841.554688 502.503906 840.984375 C 503.738281 837.09375 504.875 833.203125 506.011719 829.21875 C 506.296875 828.269531 506.582031 827.222656 506.867188 826.273438 C 508.574219 826.179688 510.28125 826.085938 512.082031 826.085938 C 513.976562 825.992188 515.78125 825.992188 517.675781 825.992188 C 521.46875 825.992188 525.167969 826.085938 528.960938 826.273438 C 531.046875 826.371094 533.132812 826.558594 535.21875 826.75 C 535.597656 826.75 535.882812 826.464844 535.882812 826.085938 C 535.882812 825.992188 535.597656 825.800781 535.21875 825.707031 Z M 535.21875 825.707031 " fill-opacity="1" fill-rule="nonzero"/><path fill="#ffffff" d="M 513.125 834.058594 L 513.125 840.320312 C 513.125 841.078125 514.261719 841.078125 514.261719 840.320312 L 514.261719 834.058594 C 514.261719 833.394531 513.125 833.394531 513.125 834.058594 Z M 513.125 834.058594 " fill-opacity="1" fill-rule="nonzero"/><path fill="#ffffff" d="M 533.132812 839.085938 L 531.332031 837.1875 L 533.039062 835.195312 C 533.511719 834.625 532.660156 833.960938 532.1875 834.4375 L 530.480469 836.335938 L 528.675781 834.53125 C 528.203125 834.058594 527.347656 834.816406 527.917969 835.289062 L 529.71875 837.1875 L 528.011719 839.183594 C 527.539062 839.75 528.390625 840.414062 528.867188 839.941406 L 530.574219 838.042969 L 532.375 839.847656 C 532.847656 840.320312 533.703125 839.5625 533.132812 839.085938 Z M 533.132812 839.085938 " fill-opacity="1" fill-rule="nonzero"/><path fill="#ffffff" d="M 522.511719 836.523438 L 519.097656 836.523438 C 518.816406 836.523438 518.53125 836.808594 518.53125 837.09375 C 518.53125 837.378906 518.816406 837.664062 519.097656 837.664062 L 522.511719 837.664062 C 522.796875 837.664062 523.082031 837.378906 523.082031 837.09375 C 523.082031 836.714844 522.796875 836.523438 522.511719 836.523438 Z M 522.511719 836.523438 " fill-opacity="1" fill-rule="nonzero"/><path fill="#ffffff" d="M 528.867188 851.804688 L 528.867188 858.066406 C 528.867188 858.828125 530.003906 858.828125 530.003906 858.066406 L 530.003906 851.804688 C 530.003906 851.042969 528.867188 851.042969 528.867188 851.804688 Z M 528.867188 851.804688 " fill-opacity="1" fill-rule="nonzero"/><path fill="#ffffff" d="M 518.054688 856.738281 L 516.253906 854.839844 L 517.960938 852.847656 C 518.433594 852.277344 517.582031 851.613281 517.109375 852.089844 L 515.402344 853.988281 L 513.597656 852.183594 C 513.125 851.707031 512.269531 852.46875 512.839844 852.941406 L 514.640625 854.839844 L 512.933594 856.832031 C 512.460938 857.402344 513.316406 858.066406 513.789062 857.59375 L 515.496094 855.695312 L 517.296875 857.496094 C 517.773438 858.066406 518.53125 857.308594 518.054688 856.738281 Z M 518.054688 856.738281 " fill-opacity="1" fill-rule="nonzero"/><path fill="#ffffff" d="M 524.21875 854.175781 L 520.804688 854.175781 C 520.523438 854.175781 520.238281 854.460938 520.238281 854.746094 C 520.238281 855.03125 520.523438 855.316406 520.804688 855.316406 L 524.21875 855.316406 C 524.503906 855.316406 524.789062 855.03125 524.789062 854.746094 C 524.789062 854.460938 524.597656 854.175781 524.21875 854.175781 Z M 524.21875 854.175781 " fill-opacity="1" fill-rule="nonzero"/><path fill="#ff7a4d" d="M 536.453125 845.539062 L 508.953125 845.539062 C 508.195312 845.539062 508.195312 846.679688 508.953125 846.679688 L 536.453125 846.679688 C 537.117188 846.585938 537.117188 845.539062 536.453125 845.539062 Z M 536.453125 845.539062 " fill-opacity="1" fill-rule="nonzero"/><path fill="#ff7a4d" d="M 499.183594 878.660156 C 499.183594 879.039062 499.113281 879.402344 498.96875 879.75 C 498.824219 880.097656 498.617188 880.40625 498.351562 880.675781 C 498.085938 880.941406 497.777344 881.148438 497.429688 881.292969 C 497.082031 881.4375 496.71875 881.507812 496.339844 881.507812 C 495.960938 881.507812 495.601562 881.4375 495.25 881.292969 C 494.902344 881.148438 494.59375 880.941406 494.328125 880.675781 C 494.0625 880.40625 493.855469 880.097656 493.710938 879.75 C 493.566406 879.402344 493.496094 879.039062 493.496094 878.660156 C 493.496094 878.285156 493.566406 877.921875 493.710938 877.570312 C 493.855469 877.222656 494.0625 876.914062 494.328125 876.648438 C 494.59375 876.378906 494.902344 876.175781 495.25 876.03125 C 495.601562 875.886719 495.960938 875.8125 496.339844 875.8125 C 496.71875 875.8125 497.082031 875.886719 497.429688 876.03125 C 497.777344 876.175781 498.085938 876.378906 498.351562 876.648438 C 498.617188 876.914062 498.824219 877.222656 498.96875 877.570312 C 499.113281 877.921875 499.183594 878.285156 499.183594 878.660156 Z M 499.183594 878.660156 " fill-opacity="1" fill-rule="nonzero"/><path fill="#379ab4" d="M 514.074219 878.660156 C 514.074219 879.039062 514 879.402344 513.855469 879.75 C 513.710938 880.097656 513.507812 880.40625 513.238281 880.675781 C 512.972656 880.941406 512.664062 881.148438 512.316406 881.292969 C 511.96875 881.4375 511.605469 881.507812 511.226562 881.507812 C 510.851562 881.507812 510.488281 881.4375 510.140625 881.292969 C 509.792969 881.148438 509.484375 880.941406 509.214844 880.675781 C 508.949219 880.40625 508.746094 880.097656 508.601562 879.75 C 508.457031 879.402344 508.382812 879.039062 508.382812 878.660156 C 508.382812 878.285156 508.457031 877.921875 508.601562 877.570312 C 508.746094 877.222656 508.949219 876.914062 509.214844 876.648438 C 509.484375 876.378906 509.792969 876.175781 510.140625 876.03125 C 510.488281 875.886719 510.851562 875.8125 511.226562 875.8125 C 511.605469 875.8125 511.96875 875.886719 512.316406 876.03125 C 512.664062 876.175781 512.972656 876.378906 513.238281 876.648438 C 513.507812 876.914062 513.710938 877.222656 513.855469 877.570312 C 514 877.921875 514.074219 878.285156 514.074219 878.660156 Z M 514.074219 878.660156 " fill-opacity="1" fill-rule="nonzero"/><path fill="#ff7a4d" d="M 528.867188 878.660156 C 528.867188 879.039062 528.792969 879.402344 528.648438 879.75 C 528.503906 880.097656 528.300781 880.40625 528.035156 880.675781 C 527.765625 880.941406 527.457031 881.148438 527.109375 881.292969 C 526.761719 881.4375 526.398438 881.507812 526.023438 881.507812 C 525.644531 881.507812 525.28125 881.4375 524.933594 881.292969 C 524.585938 881.148438 524.277344 880.941406 524.011719 880.675781 C 523.742188 880.40625 523.539062 880.097656 523.394531 879.75 C 523.25 879.402344 523.175781 879.039062 523.175781 878.660156 C 523.175781 878.285156 523.25 877.921875 523.394531 877.570312 C 523.539062 877.222656 523.742188 876.914062 524.011719 876.648438 C 524.277344 876.378906 524.585938 876.175781 524.933594 876.03125 C 525.28125 875.886719 525.644531 875.8125 526.023438 875.8125 C 526.398438 875.8125 526.761719 875.886719 527.109375 876.03125 C 527.457031 876.175781 527.765625 876.378906 528.035156 876.648438 C 528.300781 876.914062 528.503906 877.222656 528.648438 877.570312 C 528.792969 877.921875 528.867188 878.285156 528.867188 878.660156 Z M 528.867188 878.660156 " fill-opacity="1" fill-rule="nonzero"/><path fill="#379ab4" d="M 543.660156 878.660156 C 543.660156 879.039062 543.585938 879.402344 543.445312 879.75 C 543.300781 880.097656 543.09375 880.40625 542.828125 880.675781 C 542.558594 880.941406 542.253906 881.148438 541.902344 881.292969 C 541.554688 881.4375 541.191406 881.507812 540.816406 881.507812 C 540.4375 881.507812 540.074219 881.4375 539.726562 881.292969 C 539.378906 881.148438 539.070312 880.941406 538.804688 880.675781 C 538.535156 880.40625 538.332031 880.097656 538.1875 879.75 C 538.042969 879.402344 537.96875 879.039062 537.96875 878.660156 C 537.96875 878.285156 538.042969 877.921875 538.1875 877.570312 C 538.332031 877.222656 538.535156 876.914062 538.804688 876.648438 C 539.070312 876.378906 539.378906 876.175781 539.726562 876.03125 C 540.074219 875.886719 540.4375 875.8125 540.816406 875.8125 C 541.191406 875.8125 541.554688 875.886719 541.902344 876.03125 C 542.253906 876.175781 542.558594 876.378906 542.828125 876.648438 C 543.09375 876.914062 543.300781 877.222656 543.445312 877.570312 C 543.585938 877.921875 543.660156 878.285156 543.660156 878.660156 Z M 543.660156 878.660156 " fill-opacity="1" fill-rule="nonzero"/><path fill="#39446c" d="M 568.03125 816.027344 L 616.109375 816.027344 L 616.109375 817.257812 L 568.03125 817.257812 Z M 568.03125 816.027344 " fill-opacity="1" fill-rule="nonzero"/><path fill="#39446c" d="M 568.03125 821.53125 L 616.109375 821.53125 L 616.109375 822.765625 L 568.03125 822.765625 Z M 568.03125 821.53125 " fill-opacity="1" fill-rule="nonzero"/><path fill="#ffffff" d="M 559.875 902.386719 C 559.875 902.730469 559.84375 903.070312 559.777344 903.40625 C 559.707031 903.742188 559.609375 904.066406 559.480469 904.382812 C 559.347656 904.699219 559.1875 905 558.996094 905.285156 C 558.804688 905.570312 558.589844 905.835938 558.347656 906.078125 C 558.105469 906.320312 557.84375 906.535156 557.558594 906.726562 C 557.273438 906.917969 556.972656 907.078125 556.65625 907.207031 C 556.339844 907.339844 556.011719 907.4375 555.679688 907.503906 C 555.34375 907.574219 555.003906 907.605469 554.660156 907.605469 C 554.316406 907.605469 553.980469 907.574219 553.644531 907.503906 C 553.308594 907.4375 552.980469 907.339844 552.664062 907.207031 C 552.347656 907.078125 552.046875 906.917969 551.761719 906.726562 C 551.476562 906.535156 551.214844 906.320312 550.972656 906.078125 C 550.730469 905.835938 550.515625 905.570312 550.324219 905.285156 C 550.132812 905 549.972656 904.699219 549.839844 904.382812 C 549.710938 904.066406 549.613281 903.742188 549.542969 903.40625 C 549.476562 903.070312 549.445312 902.730469 549.445312 902.386719 C 549.445312 902.042969 549.476562 901.703125 549.542969 901.367188 C 549.613281 901.03125 549.710938 900.707031 549.839844 900.390625 C 549.972656 900.070312 550.132812 899.769531 550.324219 899.488281 C 550.515625 899.203125 550.730469 898.9375 550.972656 898.695312 C 551.214844 898.453125 551.476562 898.238281 551.761719 898.046875 C 552.046875 897.855469 552.347656 897.695312 552.664062 897.5625 C 552.980469 897.433594 553.308594 897.332031 553.644531 897.265625 C 553.980469 897.199219 554.316406 897.167969 554.660156 897.167969 C 555.003906 897.167969 555.34375 897.199219 555.679688 897.265625 C 556.011719 897.332031 556.339844 897.433594 556.65625 897.5625 C 556.972656 897.695312 557.273438 897.855469 557.558594 898.046875 C 557.84375 898.238281 558.105469 898.453125 558.347656 898.695312 C 558.589844 898.9375 558.804688 899.203125 558.996094 899.488281 C 559.1875 899.769531 559.347656 900.070312 559.480469 900.390625 C 559.609375 900.707031 559.707031 901.03125 559.777344 901.367188 C 559.84375 901.703125 559.875 902.042969 559.875 902.386719 Z M 559.875 902.386719 " fill-opacity="1" fill-rule="nonzero"/><path fill="#39446c" d="M 539.773438 912.824219 L 571.445312 912.824219 L 571.445312 915.765625 L 539.773438 915.765625 Z M 539.773438 912.824219 " fill-opacity="1" fill-rule="nonzero"/><g clip-path="url(#c5c39f2563)"><path fill="#ff7a4d" d="M 421.234375 957.429688 L 832.890625 957.429688 L 832.890625 970.429688 L 421.234375 970.429688 Z M 421.234375 957.429688 " fill-opacity="1" fill-rule="nonzero"/></g><path fill="#379ab4" d="M 793.0625 727.957031 C 793.0625 728.726562 793.023438 729.496094 792.949219 730.265625 C 792.875 731.03125 792.761719 731.792969 792.609375 732.546875 C 792.460938 733.304688 792.273438 734.050781 792.050781 734.789062 C 791.824219 735.527344 791.566406 736.25 791.273438 736.964844 C 790.976562 737.675781 790.648438 738.371094 790.285156 739.050781 C 789.921875 739.730469 789.527344 740.390625 789.097656 741.03125 C 788.671875 741.671875 788.210938 742.292969 787.722656 742.886719 C 787.234375 743.484375 786.71875 744.054688 786.175781 744.597656 C 785.628906 745.144531 785.058594 745.660156 784.464844 746.148438 C 783.867188 746.640625 783.25 747.097656 782.609375 747.527344 C 781.96875 747.953125 781.308594 748.351562 780.628906 748.714844 C 779.949219 749.078125 779.253906 749.40625 778.542969 749.699219 C 777.832031 749.996094 777.109375 750.253906 776.371094 750.480469 C 775.632812 750.703125 774.886719 750.890625 774.132812 751.039062 C 773.375 751.191406 772.617188 751.304688 771.847656 751.378906 C 771.082031 751.453125 770.316406 751.492188 769.542969 751.492188 C 768.773438 751.492188 768.003906 751.453125 767.238281 751.378906 C 766.472656 751.304688 765.710938 751.191406 764.957031 751.039062 C 764.199219 750.890625 763.453125 750.703125 762.71875 750.480469 C 761.980469 750.253906 761.257812 749.996094 760.542969 749.699219 C 759.832031 749.40625 759.136719 749.078125 758.457031 748.714844 C 757.777344 748.351562 757.117188 747.953125 756.476562 747.527344 C 755.839844 747.097656 755.21875 746.640625 754.625 746.148438 C 754.03125 745.660156 753.460938 745.144531 752.914062 744.597656 C 752.371094 744.054688 751.851562 743.484375 751.363281 742.886719 C 750.875 742.292969 750.417969 741.671875 749.988281 741.03125 C 749.5625 740.390625 749.167969 739.730469 748.804688 739.050781 C 748.441406 738.371094 748.113281 737.675781 747.816406 736.964844 C 747.523438 736.25 747.261719 735.527344 747.039062 734.789062 C 746.816406 734.050781 746.628906 733.304688 746.476562 732.546875 C 746.328125 731.792969 746.214844 731.03125 746.140625 730.265625 C 746.0625 729.496094 746.027344 728.726562 746.027344 727.957031 C 746.027344 727.1875 746.0625 726.417969 746.140625 725.648438 C 746.214844 724.882812 746.328125 724.121094 746.476562 723.367188 C 746.628906 722.609375 746.816406 721.863281 747.039062 721.125 C 747.261719 720.386719 747.523438 719.664062 747.816406 718.949219 C 748.113281 718.238281 748.441406 717.542969 748.804688 716.863281 C 749.167969 716.183594 749.5625 715.523438 749.988281 714.882812 C 750.417969 714.242188 750.875 713.621094 751.363281 713.027344 C 751.851562 712.429688 752.371094 711.859375 752.914062 711.316406 C 753.460938 710.769531 754.03125 710.253906 754.625 709.761719 C 755.21875 709.273438 755.839844 708.816406 756.476562 708.386719 C 757.117188 707.960938 757.777344 707.5625 758.457031 707.199219 C 759.136719 706.835938 759.832031 706.507812 760.542969 706.210938 C 761.257812 705.917969 761.980469 705.660156 762.71875 705.433594 C 763.453125 705.210938 764.199219 705.023438 764.957031 704.875 C 765.710938 704.722656 766.472656 704.609375 767.238281 704.535156 C 768.003906 704.460938 768.773438 704.421875 769.542969 704.421875 C 770.316406 704.421875 771.082031 704.460938 771.847656 704.535156 C 772.617188 704.609375 773.375 704.722656 774.132812 704.875 C 774.886719 705.023438 775.632812 705.210938 776.371094 705.433594 C 777.109375 705.660156 777.832031 705.917969 778.542969 706.210938 C 779.253906 706.507812 779.953125 706.835938 780.628906 707.199219 C 781.308594 707.5625 781.96875 707.960938 782.609375 708.386719 C 783.25 708.816406 783.867188 709.273438 784.464844 709.761719 C 785.058594 710.253906 785.628906 710.769531 786.175781 711.316406 C 786.71875 711.859375 787.234375 712.429688 787.722656 713.027344 C 788.210938 713.621094 788.671875 714.242188 789.097656 714.882812 C 789.527344 715.523438 789.921875 716.183594 790.285156 716.863281 C 790.648438 717.542969 790.976562 718.238281 791.273438 718.949219 C 791.566406 719.664062 791.824219 720.386719 792.050781 721.125 C 792.273438 721.863281 792.460938 722.609375 792.609375 723.367188 C 792.761719 724.121094 792.875 724.882812 792.949219 725.648438 C 793.023438 726.417969 793.0625 727.1875 793.0625 727.957031 Z M 793.0625 727.957031 " fill-opacity="1" fill-rule="nonzero"/><path fill="#39446c" d="M 757.027344 838.800781 C 756.742188 838.898438 756.550781 838.898438 756.269531 839.085938 C 756.078125 839.183594 755.792969 839.371094 755.605469 839.464844 C 755.128906 839.75 754.75 840.035156 754.371094 840.320312 C 753.519531 840.890625 752.757812 841.554688 752 842.3125 C 750.578125 843.738281 749.34375 845.445312 748.492188 847.25 C 748.492188 847.34375 748.398438 847.4375 748.398438 847.4375 C 748.300781 846.488281 748.300781 845.539062 748.207031 844.589844 C 748.019531 840.984375 747.921875 837.285156 748.585938 833.675781 C 748.683594 833.203125 748.777344 832.726562 748.871094 832.347656 C 749.0625 831.683594 748.019531 831.398438 747.828125 832.0625 C 747.257812 833.773438 746.976562 835.671875 746.878906 837.570312 C 746.785156 839.371094 746.785156 841.269531 746.878906 843.074219 C 747.070312 846.773438 747.355469 850.476562 747.355469 854.175781 C 747.355469 857.6875 747.164062 861.199219 746.976562 864.710938 C 746.878906 864.519531 746.785156 864.332031 746.59375 864.234375 C 746.027344 863.476562 745.457031 862.71875 744.792969 862.054688 C 744.128906 861.390625 743.371094 860.722656 742.613281 860.15625 C 741.855469 859.585938 741 859.109375 740.148438 858.828125 C 739.578125 858.636719 739.292969 859.492188 739.769531 859.777344 C 740.527344 860.25 741.285156 860.722656 742.042969 861.292969 C 742.707031 861.769531 743.371094 862.335938 743.941406 863.003906 C 744.507812 863.570312 745.078125 864.234375 745.550781 864.996094 C 746.027344 865.660156 746.40625 866.417969 746.878906 867.082031 C 746.691406 870.308594 746.59375 873.535156 746.691406 876.761719 C 746.785156 878.566406 746.878906 880.464844 747.070312 882.265625 C 747.164062 883.214844 747.257812 884.164062 747.449219 885.113281 C 747.636719 885.96875 747.734375 886.917969 748.019531 887.769531 C 748.207031 888.246094 748.300781 888.625 748.398438 889.101562 C 748.585938 889.667969 749.535156 889.480469 749.34375 888.816406 C 749.15625 887.867188 749.0625 887.011719 748.871094 886.0625 C 748.683594 885.210938 748.585938 884.261719 748.398438 883.40625 C 748.398438 883.40625 748.398438 883.40625 748.398438 883.3125 C 748.683594 882.742188 748.964844 882.078125 749.25 881.507812 C 749.628906 880.9375 750.007812 880.367188 750.386719 879.800781 C 750.769531 879.230469 751.242188 878.753906 751.714844 878.28125 C 751.90625 877.996094 752.191406 877.808594 752.476562 877.617188 C 752.757812 877.332031 752.949219 877.046875 753.234375 876.859375 C 753.613281 876.476562 753.140625 875.8125 752.664062 876.097656 C 752.378906 876.289062 752 876.476562 751.714844 876.761719 C 751.433594 876.953125 751.148438 877.238281 750.957031 877.523438 C 750.386719 878.089844 749.914062 878.660156 749.441406 879.230469 C 748.964844 879.800781 748.585938 880.367188 748.207031 881.035156 C 748.207031 881.128906 748.113281 881.128906 748.113281 881.222656 C 748.019531 880.179688 747.921875 879.136719 747.921875 878.089844 C 747.734375 874.390625 747.828125 870.6875 748.019531 866.988281 C 748.207031 863.285156 748.398438 859.585938 748.492188 855.882812 C 748.492188 854.082031 748.492188 852.375 748.492188 850.570312 C 748.585938 850.285156 748.777344 849.90625 748.871094 849.621094 C 749.0625 849.242188 749.15625 848.765625 749.34375 848.386719 C 749.726562 847.53125 750.199219 846.679688 750.769531 845.824219 C 751.8125 844.304688 753.140625 842.882812 754.65625 841.742188 C 755.035156 841.460938 755.507812 841.078125 755.984375 840.796875 C 756.269531 840.605469 756.457031 840.511719 756.742188 840.320312 C 757.027344 840.128906 757.214844 839.941406 757.40625 839.75 C 757.785156 839.183594 757.40625 838.707031 757.027344 838.800781 Z M 757.027344 838.800781 " fill-opacity="1" fill-rule="nonzero"/><path fill="#39446c" d="M 776.847656 777.875 C 775.328125 779.203125 774 780.722656 772.671875 782.242188 C 771.347656 783.757812 770.113281 785.371094 768.785156 786.984375 C 766.320312 790.210938 763.949219 793.535156 761.863281 797.046875 C 759.777344 800.460938 757.785156 804.066406 756.078125 807.675781 C 754.277344 811.375 752.757812 815.078125 751.335938 818.96875 C 750.007812 822.765625 748.777344 826.65625 747.921875 830.640625 C 747.828125 831.113281 747.734375 831.589844 747.636719 832.0625 C 747.542969 832.726562 748.398438 833.011719 748.585938 832.347656 C 749.15625 830.449219 749.628906 828.457031 750.199219 826.558594 C 750.769531 824.660156 751.335938 822.667969 752 820.769531 C 753.328125 816.976562 754.84375 813.273438 756.457031 809.574219 C 758.164062 805.964844 760.0625 802.359375 762.148438 798.945312 C 764.234375 795.527344 766.507812 792.109375 768.878906 788.882812 C 771.25 785.65625 773.90625 782.714844 776.5625 779.679688 C 776.847656 779.296875 777.226562 778.917969 777.511719 778.539062 C 777.890625 778.160156 777.320312 777.496094 776.847656 777.875 Z M 776.847656 777.875 " fill-opacity="1" fill-rule="nonzero"/><path fill="#39446c" d="M 748.207031 832.253906 C 747.070312 829.882812 745.742188 827.699219 744.226562 825.609375 C 742.707031 823.429688 741.191406 821.339844 739.484375 819.347656 C 736.164062 815.363281 732.5625 811.660156 728.578125 808.433594 C 726.300781 806.535156 724.027344 804.730469 721.464844 803.214844 C 721.277344 803.117188 720.898438 803.117188 720.800781 803.402344 C 720.613281 803.6875 720.800781 803.878906 720.992188 804.066406 C 722.984375 805.585938 725.070312 807.105469 727.0625 808.71875 C 729.050781 810.332031 730.949219 812.039062 732.75 813.84375 C 736.355469 817.449219 739.671875 821.339844 742.613281 825.421875 C 744.226562 827.792969 745.742188 830.261719 747.355469 832.726562 C 747.734375 833.296875 748.492188 832.824219 748.207031 832.253906 Z M 748.207031 832.253906 " fill-opacity="1" fill-rule="nonzero"/><path fill="#39446c" d="M 798.847656 825.609375 C 797.328125 825.515625 795.90625 825.707031 794.390625 825.800781 C 792.871094 825.992188 791.355469 826.085938 789.933594 826.371094 C 786.992188 826.84375 784.054688 827.414062 781.207031 828.171875 C 775.421875 829.691406 769.828125 831.78125 764.519531 834.53125 C 761.578125 836.050781 758.640625 837.664062 755.890625 839.5625 C 755.699219 839.75 755.507812 840.035156 755.699219 840.320312 C 755.792969 840.605469 756.171875 840.699219 756.457031 840.511719 C 758.921875 838.898438 761.484375 837.378906 764.042969 836.050781 C 766.699219 834.722656 769.355469 833.488281 772.105469 832.347656 C 777.605469 830.167969 783.292969 828.648438 789.078125 827.699219 C 790.691406 827.414062 792.304688 827.222656 793.914062 827.035156 C 795.527344 826.84375 797.234375 826.84375 798.941406 826.558594 C 799.226562 826.558594 799.414062 826.371094 799.414062 826.085938 C 799.320312 825.800781 799.035156 825.609375 798.847656 825.609375 Z M 798.847656 825.609375 " fill-opacity="1" fill-rule="nonzero"/><path fill="#39446c" d="M 741.476562 859.777344 C 740.8125 859.207031 740.148438 858.636719 739.484375 858.160156 C 738.820312 857.6875 738.0625 857.214844 737.398438 856.738281 C 735.972656 855.789062 734.457031 854.933594 732.84375 854.175781 C 729.714844 852.5625 726.492188 851.328125 723.171875 850.378906 C 721.277344 849.90625 719.378906 849.335938 717.386719 849.242188 C 716.820312 849.242188 716.722656 850 717.292969 850.191406 C 718.90625 850.664062 720.613281 850.949219 722.222656 851.425781 C 723.835938 851.898438 725.449219 852.375 727.0625 853.039062 C 730.191406 854.269531 733.222656 855.695312 736.070312 857.496094 C 736.921875 857.972656 737.679688 858.542969 738.441406 859.109375 C 739.199219 859.679688 740.050781 860.15625 740.8125 860.722656 C 741.378906 860.820312 741.949219 860.058594 741.476562 859.777344 Z M 741.476562 859.777344 " fill-opacity="1" fill-rule="nonzero"/><path fill="#39446c" d="M 773.148438 862.433594 C 772.671875 862.433594 772.199219 862.527344 771.820312 862.71875 C 771.441406 862.8125 770.964844 863.003906 770.585938 863.097656 C 769.734375 863.382812 768.976562 863.667969 768.121094 864.046875 C 766.507812 864.710938 764.898438 865.5625 763.285156 866.417969 C 760.25 868.222656 757.40625 870.40625 754.941406 872.871094 C 753.519531 874.296875 752.191406 875.8125 751.050781 877.425781 C 750.769531 877.902344 751.433594 878.472656 751.8125 877.996094 C 752.949219 876.667969 753.992188 875.339844 755.226562 874.105469 C 756.457031 872.871094 757.691406 871.734375 759.113281 870.59375 C 761.769531 868.410156 764.804688 866.703125 767.933594 865.28125 C 768.785156 864.898438 769.640625 864.519531 770.585938 864.234375 C 771.0625 864.046875 771.535156 863.949219 772.011719 863.761719 C 772.484375 863.570312 773.054688 863.476562 773.433594 863.191406 C 773.8125 863.097656 773.621094 862.433594 773.148438 862.433594 Z M 773.148438 862.433594 " fill-opacity="1" fill-rule="nonzero"/><path fill="#39446c" d="M 770.683594 908.460938 L 769.640625 929.054688 L 727.0625 929.054688 L 725.542969 900.394531 Z M 770.683594 908.460938 " fill-opacity="1" fill-rule="nonzero"/><path fill="#379ab4" d="M 771.914062 885.210938 L 770.683594 908.460938 L 725.542969 900.394531 L 724.785156 885.210938 Z M 771.914062 885.210938 " fill-opacity="1" fill-rule="nonzero"/><path fill="#379ab4" d="M 545.9375 954.203125 L 608.429688 954.203125 L 608.429688 955.816406 L 545.9375 955.816406 Z M 545.9375 954.203125 " fill-opacity="1" fill-rule="nonzero"/><path fill="#ffffff" d="M 545.9375 934.746094 L 612.507812 934.746094 L 612.507812 954.296875 L 545.9375 954.296875 Z M 545.9375 934.746094 " fill-opacity="1" fill-rule="nonzero"/><path fill="#379ab4" d="M 547.925781 936.644531 L 555.039062 936.644531 L 555.039062 941.105469 L 547.925781 941.105469 Z M 547.925781 936.644531 " fill-opacity="1" fill-rule="nonzero"/><path fill="#379ab4" d="M 556.558594 936.644531 L 563.667969 936.644531 L 563.667969 941.105469 L 556.558594 941.105469 Z M 556.558594 936.644531 " fill-opacity="1" fill-rule="nonzero"/><path fill="#379ab4" d="M 565.1875 936.644531 L 572.296875 936.644531 L 572.296875 941.105469 L 565.1875 941.105469 Z M 565.1875 936.644531 " fill-opacity="1" fill-rule="nonzero"/><path fill="#379ab4" d="M 573.816406 936.644531 L 580.929688 936.644531 L 580.929688 941.105469 L 573.816406 941.105469 Z M 573.816406 936.644531 " fill-opacity="1" fill-rule="nonzero"/><path fill="#379ab4" d="M 582.445312 936.644531 L 589.558594 936.644531 L 589.558594 941.105469 L 582.445312 941.105469 Z M 582.445312 936.644531 " fill-opacity="1" fill-rule="nonzero"/><path fill="#379ab4" d="M 547.925781 942.246094 L 555.039062 942.246094 L 555.039062 946.707031 L 547.925781 946.707031 Z M 547.925781 942.246094 " fill-opacity="1" fill-rule="nonzero"/><path fill="#379ab4" d="M 556.558594 942.246094 L 563.667969 942.246094 L 563.667969 946.707031 L 556.558594 946.707031 Z M 556.558594 942.246094 " fill-opacity="1" fill-rule="nonzero"/><path fill="#379ab4" d="M 565.1875 942.246094 L 572.296875 942.246094 L 572.296875 946.707031 L 565.1875 946.707031 Z M 565.1875 942.246094 " fill-opacity="1" fill-rule="nonzero"/><path fill="#379ab4" d="M 573.816406 942.246094 L 580.929688 942.246094 L 580.929688 946.707031 L 573.816406 946.707031 Z M 573.816406 942.246094 " fill-opacity="1" fill-rule="nonzero"/><path fill="#379ab4" d="M 582.445312 942.246094 L 589.558594 942.246094 L 589.558594 946.707031 L 582.445312 946.707031 Z M 582.445312 942.246094 " fill-opacity="1" fill-rule="nonzero"/><path fill="#379ab4" d="M 547.925781 947.84375 L 555.039062 947.84375 L 555.039062 952.304688 L 547.925781 952.304688 Z M 547.925781 947.84375 " fill-opacity="1" fill-rule="nonzero"/><path fill="#379ab4" d="M 556.558594 947.84375 L 563.667969 947.84375 L 563.667969 952.304688 L 556.558594 952.304688 Z M 556.558594 947.84375 " fill-opacity="1" fill-rule="nonzero"/><path fill="#379ab4" d="M 565.1875 947.84375 L 572.296875 947.84375 L 572.296875 952.304688 L 565.1875 952.304688 Z M 565.1875 947.84375 " fill-opacity="1" fill-rule="nonzero"/><path fill="#379ab4" d="M 573.816406 947.84375 L 580.929688 947.84375 L 580.929688 952.304688 L 573.816406 952.304688 Z M 573.816406 947.84375 " fill-opacity="1" fill-rule="nonzero"/><path fill="#379ab4" d="M 582.445312 947.84375 L 589.558594 947.84375 L 589.558594 952.304688 L 582.445312 952.304688 Z M 582.445312 947.84375 " fill-opacity="1" fill-rule="nonzero"/><g clip-path="url(#5cd5fc4e81)"><path fill="#ff7a4d" d="M 389.277344 984.191406 L 819.992188 984.191406 L 819.992188 989.410156 L 389.277344 989.410156 Z M 389.277344 984.191406 " fill-opacity="1" fill-rule="nonzero"/></g><path fill="#f9a97e" d="M 605.773438 958.285156 C 601.222656 956.859375 596.667969 955.339844 592.78125 952.496094 C 588.988281 949.648438 585.953125 945.28125 586.050781 940.535156 C 586.144531 936.457031 588.417969 932.753906 590.507812 929.242188 C 602.265625 910.074219 612.03125 889.667969 619.523438 868.410156 C 645.316406 871.070312 671.871094 870.878906 697.757812 869.074219 C 711.601562 889.289062 721.371094 910.832031 727.535156 934.558594 C 728.386719 937.785156 729.148438 941.105469 728.765625 944.425781 C 728.199219 949.835938 724.5 954.582031 720.136719 957.714844 C 715.679688 960.84375 710.558594 962.742188 705.4375 964.640625 C 673.578125 976.125 637.921875 968.53125 605.773438 958.285156 Z M 605.773438 958.285156 " fill-opacity="1" fill-rule="nonzero"/><path fill="#39446c" d="M 700.792969 912.824219 C 700.601562 911.210938 700.320312 909.597656 700.128906 907.984375 C 699.9375 906.277344 699.75 904.570312 699.277344 902.957031 C 698.992188 902.101562 697.757812 902.292969 697.664062 903.144531 C 697.570312 904.664062 697.949219 906.277344 698.136719 907.796875 C 698.328125 909.503906 698.613281 911.210938 698.800781 912.824219 C 699.277344 916.050781 699.464844 919.46875 700.414062 922.695312 C 700.601562 923.453125 701.835938 923.359375 701.835938 922.503906 C 701.929688 919.277344 701.265625 915.957031 700.792969 912.824219 Z M 700.792969 912.824219 " fill-opacity="1" fill-rule="nonzero"/><path fill="#39446c" d="M 620.945312 904.472656 C 620.28125 905.136719 619.996094 906.085938 619.617188 906.941406 C 619.238281 907.796875 618.859375 908.648438 618.480469 909.597656 C 618.101562 910.546875 617.722656 911.496094 617.34375 912.351562 C 616.964844 913.203125 616.488281 914.058594 616.488281 915.007812 C 616.488281 915.671875 617.34375 915.957031 617.722656 915.578125 C 618.386719 914.914062 618.671875 913.964844 619.050781 913.109375 C 619.429688 912.160156 619.808594 911.308594 620.28125 910.359375 C 620.660156 909.410156 621.039062 908.460938 621.421875 907.605469 C 621.800781 906.75 622.179688 905.992188 622.179688 905.136719 C 622.273438 904.378906 621.421875 904 620.945312 904.472656 Z M 620.945312 904.472656 " fill-opacity="1" fill-rule="nonzero"/><path fill="#ff7a4d" d="M 627.394531 826.464844 L 625.402344 825.515625 L 626.257812 823.617188 C 626.351562 822.195312 626.921875 814.601562 631.1875 806.914062 C 633.9375 801.980469 637.730469 798.089844 642.28125 795.242188 C 648.066406 791.730469 655.085938 789.929688 663.335938 789.929688 C 671.585938 789.929688 678.699219 791.730469 684.671875 795.148438 C 689.414062 797.996094 693.300781 801.886719 696.335938 806.726562 C 701.457031 814.980469 702.027344 823.238281 702.121094 823.523438 L 699.9375 823.710938 L 701.078125 823.617188 L 699.9375 823.710938 C 699.9375 823.617188 699.277344 815.644531 694.4375 807.863281 C 687.992188 797.425781 677.558594 792.109375 663.429688 792.109375 C 649.300781 792.109375 639.152344 797.425781 633.179688 807.863281 C 628.722656 815.742188 628.4375 823.710938 628.4375 823.808594 L 628.4375 823.996094 Z M 627.394531 826.464844 " fill-opacity="1" fill-rule="nonzero"/><path fill="#ff7a4d" d="M 626.257812 823.523438 C 624.738281 823.238281 623.03125 823.332031 621.703125 824.28125 C 620.472656 825.136719 619.808594 826.558594 619.238281 827.984375 C 618.101562 830.449219 617.058594 832.917969 615.921875 835.386719 C 615.257812 836.902344 614.496094 838.613281 614.6875 840.320312 C 614.972656 842.882812 617.152344 844.78125 619.238281 846.394531 C 620.28125 847.152344 621.421875 848.007812 622.746094 847.722656 C 623.695312 847.53125 624.453125 846.679688 625.023438 845.917969 C 627.679688 842.3125 629.480469 838.042969 630.144531 833.582031 C 630.523438 831.304688 630.617188 829.027344 630.429688 826.75 C 630.238281 824.472656 628.25 823.902344 626.257812 823.523438 Z M 626.257812 823.523438 " fill-opacity="1" fill-rule="nonzero"/><path fill="#ff7a4d" d="M 698.707031 820.769531 C 700.222656 820.484375 701.929688 820.582031 703.257812 821.53125 C 704.492188 822.382812 705.15625 823.808594 705.722656 825.230469 C 706.863281 827.699219 707.90625 830.167969 709.042969 832.632812 C 709.707031 834.152344 710.464844 835.859375 710.277344 837.570312 C 709.992188 840.128906 707.808594 842.027344 705.722656 843.640625 C 704.679688 844.402344 703.542969 845.253906 702.214844 844.972656 C 701.265625 844.78125 700.507812 843.925781 699.9375 843.167969 C 697.285156 839.5625 695.480469 835.289062 694.820312 830.832031 C 694.4375 828.554688 694.34375 826.273438 694.535156 823.996094 C 694.722656 821.71875 696.714844 821.152344 698.707031 820.769531 Z M 698.707031 820.769531 " fill-opacity="1" fill-rule="nonzero"/><path fill="#379ab4" d="M 655.9375 910.925781 C 624.644531 910.925781 599.230469 936.359375 599.230469 967.679688 L 599.230469 984.191406 L 712.644531 984.191406 L 712.644531 967.679688 C 712.648438 936.359375 687.230469 910.925781 655.9375 910.925781 Z M 655.9375 910.925781 " fill-opacity="1" fill-rule="nonzero"/><path fill="#39446c" d="M 655.9375 917.949219 C 627.964844 917.949219 605.203125 940.632812 605.203125 968.722656 L 605.203125 984.285156 L 706.578125 984.285156 L 706.578125 968.722656 C 706.578125 940.632812 683.914062 917.949219 655.9375 917.949219 Z M 655.9375 917.949219 " fill-opacity="1" fill-rule="nonzero"/><path fill="#39446c" d="M 716.058594 868.886719 C 712.265625 876.195312 704.777344 881.601562 696.714844 883.40625 C 694.34375 881.414062 692.351562 879.421875 690.742188 876.859375 C 689.507812 879.515625 688.65625 882.363281 687.992188 885.210938 C 671.679688 889.480469 654.800781 889.382812 638.300781 885.875 C 637.824219 882.742188 637.542969 879.421875 638.300781 876.289062 C 635.171875 878.089844 631.851562 879.894531 628.910156 881.980469 C 620.28125 878.375 613.171875 871.921875 608.714844 863.667969 C 616.394531 855.789062 622.179688 846.015625 625.402344 835.386719 C 625.78125 834.246094 626.066406 833.011719 626.445312 831.78125 C 628.816406 822.765625 630.238281 813.273438 636.117188 806.25 C 642.566406 798.375 652.621094 792.300781 662.859375 792.394531 C 675 792.585938 686.949219 796.382812 693.015625 806.15625 C 697.851562 814.03125 698.707031 823.429688 700.128906 832.632812 C 700.792969 837 701.550781 841.269531 702.878906 845.445312 C 705.535156 854.175781 710.84375 861.484375 716.058594 868.886719 Z M 716.058594 868.886719 " fill-opacity="1" fill-rule="nonzero"/><path fill="#39446c" d="M 699.9375 832.726562 C 689.980469 840.605469 677.371094 845.351562 663.714844 845.351562 C 649.488281 845.351562 636.5 840.320312 626.351562 831.875 C 628.722656 822.859375 630.144531 813.367188 636.023438 806.347656 C 642.472656 798.46875 652.523438 792.394531 662.765625 792.488281 C 674.902344 792.679688 686.851562 796.476562 692.921875 806.25 C 697.757812 814.128906 698.613281 823.523438 699.9375 832.726562 Z M 699.9375 832.726562 " fill-opacity="1" fill-rule="nonzero"/><path fill="#379ab4" d="M 467.320312 931.046875 L 494.160156 931.046875 L 494.160156 954.675781 L 467.320312 954.675781 Z M 467.320312 931.046875 " fill-opacity="1" fill-rule="nonzero"/><path fill="#379ab4" d="M 466.847656 928.105469 L 492.355469 928.105469 L 492.355469 949.550781 L 466.847656 949.550781 Z M 466.847656 928.105469 " fill-opacity="1" fill-rule="nonzero"/><path fill="#ffffff" d="M 466.847656 949.457031 L 492.355469 949.457031 L 492.355469 954.011719 L 466.847656 954.011719 Z M 466.847656 949.457031 " fill-opacity="1" fill-rule="nonzero"/><path fill="#379ab4" d="M 466.847656 928.105469 L 469.976562 928.105469 L 469.976562 949.550781 L 466.847656 949.550781 Z M 466.847656 928.105469 " fill-opacity="1" fill-rule="nonzero"/><path fill="#ffffff" d="M 473.867188 932.753906 L 487.804688 932.753906 L 487.804688 936.644531 L 473.867188 936.644531 Z M 473.867188 932.753906 " fill-opacity="1" fill-rule="nonzero"/><path fill="#379ab4" d="M 535.789062 943.003906 L 503.453125 943.003906 C 502.597656 943.003906 501.839844 942.339844 501.839844 941.390625 C 501.839844 940.535156 502.503906 939.777344 503.453125 939.777344 L 535.789062 939.777344 Z M 535.789062 943.003906 " fill-opacity="1" fill-rule="nonzero"/><path fill="#ffffff" d="M 537.78125 940.632812 L 537.78125 942.246094 L 535.789062 943.003906 L 535.789062 939.871094 Z M 537.78125 940.632812 " fill-opacity="1" fill-rule="nonzero"/><path fill="#39446c" d="M 539.773438 941.484375 L 537.78125 942.246094 L 537.78125 940.632812 Z M 539.773438 941.484375 " fill-opacity="1" fill-rule="nonzero"/><path fill="#f9a97e" d="M 742.613281 891.945312 L 756.550781 891.945312 L 756.550781 937.308594 L 742.613281 937.308594 Z M 742.613281 891.945312 " fill-opacity="1" fill-rule="nonzero"/><path fill="#ff7a4d" d="M 742.613281 902.195312 L 756.550781 902.195312 L 756.550781 905.613281 L 742.613281 905.613281 Z M 742.613281 902.195312 " fill-opacity="1" fill-rule="nonzero"/><path fill="#ff7a4d" d="M 742.613281 909.789062 L 756.550781 909.789062 L 756.550781 913.203125 L 742.613281 913.203125 Z M 742.613281 909.789062 " fill-opacity="1" fill-rule="nonzero"/><path fill="#39446c" d="M 756.46875 898.667969 L 766.296875 894.636719 L 782.261719 933.628906 L 772.433594 937.65625 Z M 756.46875 898.667969 " fill-opacity="1" fill-rule="nonzero"/><path fill="#ffffff" d="M 760.160156 907.558594 L 769.988281 903.527344 L 771.175781 906.425781 L 761.347656 910.457031 Z M 760.160156 907.558594 " fill-opacity="1" fill-rule="nonzero"/><path fill="#ffffff" d="M 768.695312 928.527344 L 778.523438 924.5 L 779.707031 927.394531 L 769.882812 931.425781 Z M 768.695312 928.527344 " fill-opacity="1" fill-rule="nonzero"/><path fill="#379ab4" d="M 767.847656 898.671875 L 777.675781 894.640625 L 793.644531 933.628906 L 783.816406 937.660156 Z M 767.847656 898.671875 " fill-opacity="1" fill-rule="nonzero"/><path fill="#39446c" d="M 771.542969 907.558594 L 781.371094 903.53125 L 782.554688 906.425781 L 772.726562 910.457031 Z M 771.542969 907.558594 " fill-opacity="1" fill-rule="nonzero"/><path fill="#39446c" d="M 780.074219 928.53125 L 789.902344 924.5 L 791.089844 927.398438 L 781.261719 931.429688 Z M 780.074219 928.53125 " fill-opacity="1" fill-rule="nonzero"/><path fill="#ff7a4d" d="M 713.691406 706.984375 L 594.300781 706.984375 L 594.300781 766.960938 L 672.152344 766.960938 L 672.152344 778.539062 L 687.136719 766.960938 L 713.691406 766.960938 Z M 713.691406 706.984375 " fill-opacity="1" fill-rule="nonzero"/><path fill="#ffffff" d="M 668.171875 718.75 L 707.527344 718.75 L 707.527344 720.933594 L 668.171875 720.933594 Z M 668.171875 718.75 " fill-opacity="1" fill-rule="nonzero"/><path fill="#ffffff" d="M 668.171875 728.050781 L 707.527344 728.050781 L 707.527344 730.234375 L 668.171875 730.234375 Z M 668.171875 728.050781 " fill-opacity="1" fill-rule="nonzero"/><path fill="#ffffff" d="M 668.171875 737.445312 L 707.527344 737.445312 L 707.527344 739.628906 L 668.171875 739.628906 Z M 668.171875 737.445312 " fill-opacity="1" fill-rule="nonzero"/><path fill="#379ab4" d="M 674.523438 750.542969 C 674.523438 750.945312 674.449219 751.332031 674.292969 751.707031 C 674.140625 752.078125 673.921875 752.40625 673.636719 752.691406 C 673.351562 752.976562 673.023438 753.195312 672.652344 753.347656 C 672.28125 753.503906 671.894531 753.582031 671.492188 753.582031 C 671.089844 753.582031 670.699219 753.503906 670.328125 753.347656 C 669.957031 753.195312 669.628906 752.976562 669.34375 752.691406 C 669.058594 752.40625 668.839844 752.078125 668.6875 751.707031 C 668.53125 751.332031 668.457031 750.945312 668.457031 750.542969 C 668.457031 750.140625 668.53125 749.753906 668.6875 749.382812 C 668.839844 749.007812 669.058594 748.679688 669.34375 748.394531 C 669.628906 748.113281 669.957031 747.890625 670.328125 747.738281 C 670.699219 747.582031 671.089844 747.507812 671.492188 747.507812 C 671.894531 747.507812 672.28125 747.582031 672.652344 747.738281 C 673.023438 747.890625 673.351562 748.113281 673.636719 748.394531 C 673.921875 748.679688 674.140625 749.007812 674.292969 749.382812 C 674.449219 749.753906 674.523438 750.140625 674.523438 750.542969 Z M 674.523438 750.542969 " fill-opacity="1" fill-rule="nonzero"/><path fill="#379ab4" d="M 685.242188 750.542969 C 685.242188 750.945312 685.164062 751.332031 685.007812 751.707031 C 684.855469 752.078125 684.636719 752.40625 684.351562 752.691406 C 684.066406 752.976562 683.738281 753.195312 683.367188 753.347656 C 682.996094 753.503906 682.609375 753.582031 682.207031 753.582031 C 681.804688 753.582031 681.417969 753.503906 681.042969 753.347656 C 680.671875 753.195312 680.34375 752.976562 680.058594 752.691406 C 679.777344 752.40625 679.554688 752.078125 679.402344 751.707031 C 679.25 751.332031 679.171875 750.945312 679.171875 750.542969 C 679.171875 750.140625 679.25 749.753906 679.402344 749.382812 C 679.554688 749.007812 679.777344 748.679688 680.058594 748.394531 C 680.34375 748.113281 680.671875 747.890625 681.042969 747.738281 C 681.417969 747.582031 681.804688 747.507812 682.207031 747.507812 C 682.609375 747.507812 682.996094 747.582031 683.367188 747.738281 C 683.738281 747.890625 684.066406 748.113281 684.351562 748.394531 C 684.636719 748.679688 684.855469 749.007812 685.007812 749.382812 C 685.164062 749.753906 685.242188 750.140625 685.242188 750.542969 Z M 685.242188 750.542969 " fill-opacity="1" fill-rule="nonzero"/><path fill="#379ab4" d="M 696.050781 750.542969 C 696.050781 750.945312 695.972656 751.332031 695.820312 751.707031 C 695.667969 752.078125 695.445312 752.40625 695.164062 752.691406 C 694.878906 752.976562 694.550781 753.195312 694.179688 753.347656 C 693.804688 753.503906 693.417969 753.582031 693.015625 753.582031 C 692.613281 753.582031 692.226562 753.503906 691.855469 753.347656 C 691.484375 753.195312 691.15625 752.976562 690.871094 752.691406 C 690.585938 752.40625 690.367188 752.078125 690.214844 751.707031 C 690.058594 751.332031 689.980469 750.945312 689.980469 750.542969 C 689.980469 750.140625 690.058594 749.753906 690.214844 749.382812 C 690.367188 749.007812 690.585938 748.679688 690.871094 748.394531 C 691.15625 748.113281 691.484375 747.890625 691.855469 747.738281 C 692.226562 747.582031 692.613281 747.507812 693.015625 747.507812 C 693.417969 747.507812 693.804688 747.582031 694.179688 747.738281 C 694.550781 747.890625 694.878906 748.113281 695.164062 748.394531 C 695.445312 748.679688 695.667969 749.007812 695.820312 749.382812 C 695.972656 749.753906 696.050781 750.140625 696.050781 750.542969 Z M 696.050781 750.542969 " fill-opacity="1" fill-rule="nonzero"/><path fill="#379ab4" d="M 706.863281 750.542969 C 706.863281 750.945312 706.785156 751.332031 706.628906 751.707031 C 706.476562 752.078125 706.257812 752.40625 705.972656 752.691406 C 705.6875 752.976562 705.359375 753.195312 704.988281 753.347656 C 704.617188 753.503906 704.230469 753.582031 703.828125 753.582031 C 703.425781 753.582031 703.039062 753.503906 702.664062 753.347656 C 702.292969 753.195312 701.964844 752.976562 701.679688 752.691406 C 701.398438 752.40625 701.175781 752.078125 701.023438 751.707031 C 700.871094 751.332031 700.792969 750.945312 700.792969 750.542969 C 700.792969 750.140625 700.871094 749.753906 701.023438 749.382812 C 701.175781 749.007812 701.398438 748.679688 701.679688 748.394531 C 701.964844 748.113281 702.292969 747.890625 702.664062 747.738281 C 703.039062 747.582031 703.425781 747.507812 703.828125 747.507812 C 704.230469 747.507812 704.617188 747.582031 704.988281 747.738281 C 705.359375 747.890625 705.6875 748.113281 705.972656 748.394531 C 706.257812 748.679688 706.476562 749.007812 706.628906 749.382812 C 706.785156 749.753906 706.863281 750.140625 706.863281 750.542969 Z M 706.863281 750.542969 " fill-opacity="1" fill-rule="nonzero"/><path fill="#ffffff" d="M 605.679688 717.421875 L 653.566406 717.421875 L 653.566406 756.523438 L 605.679688 756.523438 Z M 605.679688 717.421875 " fill-opacity="1" fill-rule="nonzero"/><path fill="#39446c" d="M 629.195312 717.421875 L 630.050781 717.421875 L 630.050781 756.523438 L 629.195312 756.523438 Z M 629.195312 717.421875 " fill-opacity="1" fill-rule="nonzero"/><path fill="#39446c" d="M 609.09375 722.640625 L 626.160156 722.640625 L 626.160156 724.160156 L 609.09375 724.160156 Z M 609.09375 722.640625 " fill-opacity="1" fill-rule="nonzero"/><path fill="#39446c" d="M 609.09375 731.375 L 626.160156 731.375 L 626.160156 732.890625 L 609.09375 732.890625 Z M 609.09375 731.375 " fill-opacity="1" fill-rule="nonzero"/><path fill="#39446c" d="M 609.09375 740.105469 L 626.160156 740.105469 L 626.160156 741.621094 L 609.09375 741.621094 Z M 609.09375 740.105469 " fill-opacity="1" fill-rule="nonzero"/><path fill="#39446c" d="M 609.09375 748.835938 L 626.160156 748.835938 L 626.160156 750.355469 L 609.09375 750.355469 Z M 609.09375 748.835938 " fill-opacity="1" fill-rule="nonzero"/><path fill="#39446c" d="M 633.085938 722.640625 L 650.152344 722.640625 L 650.152344 724.160156 L 633.085938 724.160156 Z M 633.085938 722.640625 " fill-opacity="1" fill-rule="nonzero"/><path fill="#39446c" d="M 633.085938 731.375 L 650.152344 731.375 L 650.152344 732.890625 L 633.085938 732.890625 Z M 633.085938 731.375 " fill-opacity="1" fill-rule="nonzero"/><path fill="#39446c" d="M 633.085938 740.105469 L 650.152344 740.105469 L 650.152344 741.621094 L 633.085938 741.621094 Z M 633.085938 740.105469 " fill-opacity="1" fill-rule="nonzero"/><path fill="#39446c" d="M 633.085938 748.835938 L 650.152344 748.835938 L 650.152344 750.355469 L 633.085938 750.355469 Z M 633.085938 748.835938 " fill-opacity="1" fill-rule="nonzero"/><path fill="#ffffff" d="M 761.578125 718.183594 L 761.578125 737.828125 L 781.398438 727.957031 Z M 761.578125 718.183594 " fill-opacity="1" fill-rule="nonzero"/><path fill="#ff7a4d" d="M 459.453125 970.429688 L 468.460938 970.429688 L 468.460938 984.191406 L 459.453125 984.191406 Z M 459.453125 970.429688 " fill-opacity="1" fill-rule="nonzero"/><path fill="#ff7a4d" d="M 441.90625 970.429688 L 459.453125 970.429688 L 459.453125 984.191406 L 441.90625 984.191406 Z M 441.90625 970.429688 " fill-opacity="1" fill-rule="nonzero"/><path fill="#ff7a4d" d="M 441.8125 970.429688 L 459.453125 970.429688 L 459.453125 976.125 L 441.8125 976.125 Z M 441.8125 970.429688 " fill-opacity="1" fill-rule="nonzero"/><path fill="#ff7a4d" d="M 778.457031 970.429688 L 787.46875 970.429688 L 787.46875 984.191406 L 778.457031 984.191406 Z M 778.457031 970.429688 " fill-opacity="1" fill-rule="nonzero"/><path fill="#ff7a4d" d="M 787.46875 970.429688 L 805.011719 970.429688 L 805.011719 984.191406 L 787.46875 984.191406 Z M 787.46875 970.429688 " fill-opacity="1" fill-rule="nonzero"/><path fill="#ff7a4d" d="M 787.371094 970.429688 L 805.011719 970.429688 L 805.011719 976.125 L 787.371094 976.125 Z M 787.371094 970.429688 " fill-opacity="1" fill-rule="nonzero"/></svg>