<svg xmlns="http://www.w3.org/2000/svg" xmlns:xlink="http://www.w3.org/1999/xlink" width="1587" zoomAndPan="magnify" viewBox="0 0 1190.25 1683.749949" height="2245" preserveAspectRatio="xMidYMid meet" version="1.0"><defs><clipPath id="981da90c71"><path d="M 0 0.40625 L 1189.5 0.40625 L 1189.5 1683.09375 L 0 1683.09375 Z M 0 0.40625 " clip-rule="nonzero"/></clipPath><clipPath id="53d3787229"><path d="M 357.015625 619.867188 L 832.8125 619.867188 L 832.8125 1063.566406 L 357.015625 1063.566406 Z M 357.015625 619.867188 " clip-rule="nonzero"/></clipPath></defs><g clip-path="url(#981da90c71)"><path fill="#ffffff" d="M 0 0.40625 L 1189.5 0.40625 L 1189.5 1683.09375 L 0 1683.09375 Z M 0 0.40625 " fill-opacity="1" fill-rule="nonzero"/><path fill="#ffffff" d="M 0 0.40625 L 1189.5 0.40625 L 1189.5 1683.09375 L 0 1683.09375 Z M 0 0.40625 " fill-opacity="1" fill-rule="nonzero"/></g><path fill="#86aadf" d="M 770.859375 928.503906 C 756.105469 937.355469 739.585938 942.011719 722.578125 944.113281 C 717.175781 915.640625 705.816406 885.976562 696.246094 863.949219 C 703.617188 854.285156 710.703125 844.402344 717.417969 834.269531 C 721.632812 827.910156 726.023438 821.175781 730.351562 814.152344 C 746.410156 822.328125 761.417969 831.835938 774.839844 842.835938 C 808.054688 870.054688 809.992188 905.035156 770.859375 928.503906 Z M 700.085938 1012.867188 C 670.386719 1037.234375 623 1018.652344 595.992188 999.742188 C 591.042969 996.277344 586.308594 992.550781 581.746094 988.644531 C 594.941406 976.1875 607.222656 963.257812 618.265625 951.699219 C 644.292969 955.535156 669.648438 957.492188 692.925781 957.492188 C 700.324219 957.492188 708.070312 957.160156 715.929688 956.398438 C 719.191406 978.417969 716.496094 999.402344 700.085938 1012.867188 Z M 458.726562 1014.300781 C 446.515625 988.589844 459.980469 948.289062 477.085938 912.160156 C 489.609375 917.675781 502.65625 922.703125 516.03125 927.242188 C 529.101562 949.503906 544.269531 970.679688 561.753906 988.308594 C 518.398438 1024.292969 474.636719 1047.808594 458.726562 1014.300781 Z M 430.914062 872.199219 C 403.054688 853.621094 374.671875 825.179688 411.085938 799.097656 C 423.578125 790.148438 438.402344 784.125 454.140625 780.085938 C 460.734375 802.175781 468.097656 821.640625 472.515625 833.460938 C 476.859375 845.070312 481.773438 857.460938 487.304688 870.175781 C 484.425781 875.558594 481.636719 880.9375 478.945312 886.289062 C 477.589844 888.976562 475.878906 892.382812 473.949219 896.339844 C 458.917969 889.253906 444.484375 881.253906 430.914062 872.199219 Z M 479.8125 658.707031 C 525.640625 658.707031 565.085938 685.65625 597.894531 722.839844 C 584.769531 734.605469 572.378906 747.4375 560.707031 760.996094 C 545.03125 760.515625 529.46875 760.773438 514.191406 761.773438 C 498.867188 762.777344 481.519531 763.738281 464.265625 766.238281 C 450.566406 721.015625 438.589844 658.707031 479.8125 658.707031 Z M 689.871094 849.757812 C 680.089844 828.578125 669.617188 807.515625 657.769531 787.304688 C 677.65625 792.433594 697.128906 798.960938 715.5 807.09375 C 707.03125 822.582031 698.019531 837.289062 689.871094 849.757812 Z M 605.890625 732.25 C 615.296875 743.746094 624.109375 756.023438 632.332031 768.644531 C 613.96875 765.21875 595.398438 762.960938 576.894531 761.765625 C 577.328125 761.316406 577.757812 760.859375 578.191406 760.410156 C 586.683594 751.613281 595.945312 741.875 605.890625 732.25 Z M 496.015625 854.332031 C 489.652344 838.515625 483.855469 822.734375 478.339844 807.519531 C 476.203125 801.625 472.078125 790.59375 467.683594 777.113281 C 490.300781 772.921875 513.917969 772.105469 534.628906 772.105469 C 540.070312 772.105469 545.605469 772.207031 551.203125 772.386719 C 530.324219 798.210938 511.933594 826.226562 496.015625 854.332031 Z M 506.375 909.941406 C 498.40625 906.988281 490.554688 903.808594 482.839844 900.402344 C 486.082031 893.980469 489.355469 887.769531 492.542969 881.886719 C 496.816406 891.203125 501.425781 900.609375 506.375 909.941406 Z M 525.070312 916.417969 C 516.09375 900.3125 508.1875 883.460938 501.023438 866.488281 C 504.441406 860.363281 507.550781 854.839844 510.125 850.121094 C 525.449219 822.027344 544.816406 796.699219 566.300781 773.101562 C 590.863281 774.628906 616.429688 777.976562 641.640625 783.472656 C 657.691406 809.988281 671.1875 837.246094 682.074219 861.402344 C 674.441406 872.539062 668.210938 880.789062 664.9375 884.554688 C 658.515625 891.925781 639.828125 913.398438 616.03125 937.679688 C 585.539062 932.871094 554.722656 926.011719 525.070312 916.417969 Z M 535.089844 933.316406 C 557.84375 940.109375 581.226562 945.511719 604.28125 949.46875 C 593.992188 959.613281 583.046875 969.925781 571.921875 979.644531 C 557.914062 965.941406 545.78125 950.222656 535.089844 933.316406 Z M 692.121094 884.449219 C 698.691406 900.023438 708.609375 922.464844 713.765625 944.984375 C 698.574219 946.109375 683.171875 945.449219 668.441406 944.121094 C 655.746094 942.976562 642.828125 941.527344 629.808594 939.722656 C 650.117188 918.949219 669.785156 897.386719 687.921875 874.628906 C 689.375 877.984375 690.78125 881.269531 692.121094 884.449219 Z M 709.363281 676.539062 C 768.636719 676.539062 750.75 739.03125 721.457031 795.878906 C 698.144531 785.523438 673.535156 777.605469 648.355469 771.933594 C 638.265625 756.144531 627.1875 741.023438 614.742188 726.964844 C 614.253906 726.414062 613.757812 725.851562 613.25 725.285156 C 640.980469 699.609375 673.574219 676.539062 709.363281 676.539062 Z M 771.527344 823.429688 C 760.464844 815.964844 748.871094 809.234375 736.882812 803.183594 C 752.09375 776.683594 764.707031 746.917969 762.75 717.851562 C 759.148438 664.410156 707.621094 655.753906 665.992188 676.105469 C 644.277344 686.722656 624.007812 700.492188 605.175781 716.488281 C 573.019531 682.328125 513.253906 628.976562 469.207031 645.332031 C 430.289062 659.78125 437.195312 718.421875 450.84375 768.527344 C 429.773438 772.722656 409.679688 779.875 394.53125 792.960938 C 359.746094 823.007812 389.902344 859.597656 419 880.03125 C 433.789062 890.414062 450.441406 899.804688 468.316406 908.175781 C 446.402344 955.480469 412.734375 1044.519531 477.867188 1044.523438 C 510.835938 1044.523438 543.144531 1023.21875 571.777344 997.78125 C 597.675781 1020.671875 628.277344 1035.597656 664.234375 1035.597656 C 719.25 1035.597656 730.027344 998.285156 724.398438 955.40625 C 754.253906 951.3125 784.550781 940.445312 802.644531 916.800781 C 830.574219 880.308594 803.582031 845.054688 771.527344 823.429688 " fill-opacity="1" fill-rule="nonzero"/><path fill="#f46a61" d="M 639.691406 851.082031 C 637.285156 872.152344 618.507812 888.023438 598.605469 892.839844 C 576.582031 898.167969 555.960938 880.933594 551.199219 859.980469 C 547.527344 843.832031 553.058594 828.0625 564.492188 817.300781 C 573.921875 800.765625 599.664062 798.308594 615.683594 805.722656 C 632.589844 813.550781 641.761719 832.957031 639.691406 851.082031 " fill-opacity="1" fill-rule="nonzero"/><g clip-path="url(#53d3787229)"><path fill="#2e2e30" d="M 771.78125 864.546875 C 764.550781 863.84375 758.824219 865.0625 752.109375 861.089844 C 745.84375 857.375 742.574219 851.90625 739.609375 845.46875 C 739.046875 844.246094 737.105469 844.886719 737.132812 846.140625 C 737.320312 854.15625 743.1875 861.074219 749.773438 865.085938 C 755.773438 868.746094 766.257812 871.914062 772.539062 867.351562 C 773.777344 866.453125 773.308594 864.695312 771.78125 864.546875 Z M 636.738281 889.511719 C 627.753906 892.804688 620.042969 898.472656 610.652344 901.09375 C 600.683594 903.875 590.855469 903.804688 580.621094 903.804688 C 578.796875 903.804688 578.414062 906.5 580.191406 906.988281 C 590.453125 909.808594 601.820312 908.6875 612 905.980469 C 621.207031 903.53125 632.402344 899.402344 638.304688 891.550781 C 639.023438 890.59375 637.828125 889.113281 636.738281 889.511719 Z M 534.554688 621.59375 C 528.25 619.273438 517.753906 618.542969 512.988281 624.261719 C 512.433594 624.929688 512.742188 626.144531 513.746094 626.097656 C 517.113281 625.953125 520.277344 624.652344 523.683594 624.589844 C 527.847656 624.519531 532.136719 625.578125 535.777344 627.59375 C 541.640625 630.835938 544.070312 639.980469 550.703125 641.253906 C 552.003906 641.503906 552.8125 640.3125 552.3125 639.15625 C 549.121094 631.710938 542.234375 624.417969 534.554688 621.59375 Z M 479.796875 671.042969 C 469.761719 672.5 462.851562 685.292969 460.578125 694.105469 C 458.511719 702.121094 457.71875 717.726562 466.121094 722.617188 C 467.246094 723.273438 468.707031 722.4375 468.707031 721.132812 C 468.703125 717.273438 466.648438 713.742188 465.9375 709.957031 C 465.050781 705.242188 465.28125 700.367188 466.402344 695.710938 C 467.46875 691.28125 469.308594 687.058594 471.980469 683.351562 C 474.664062 679.632812 478.453125 677.105469 481.285156 673.59375 C 482.28125 672.359375 481.335938 670.820312 479.796875 671.042969 Z M 827.699219 869.90625 C 826.863281 868.238281 824.351562 869.425781 824.769531 871.140625 C 827.769531 883.40625 829.070312 895.398438 825.96875 907.8125 C 824.539062 913.53125 822.332031 919.007812 819.417969 924.128906 C 816.421875 929.398438 812.164062 933.800781 809.15625 939.027344 C 808.421875 940.300781 809.867188 941.625 811.109375 940.976562 C 822.207031 935.191406 828.472656 919.800781 831.078125 908.273438 C 833.925781 895.695312 833.582031 881.597656 827.699219 869.90625 Z M 772.964844 674.542969 C 762.914062 660.953125 747.03125 652.050781 730.207031 650.65625 C 728.765625 650.539062 728.492188 652.816406 729.867188 653.152344 C 745.835938 657.078125 761.476562 664.84375 770.714844 678.988281 C 775.832031 686.828125 778.234375 695.824219 779.089844 705.078125 C 779.902344 713.929688 777.769531 723.597656 779.609375 732.203125 C 779.929688 733.699219 781.960938 733.449219 782.402344 732.203125 C 785.648438 723.054688 784.5 710.183594 783.191406 700.695312 C 781.886719 691.253906 778.660156 682.238281 772.964844 674.542969 Z M 708.476562 1036.871094 C 698.375 1041.746094 688.898438 1047.054688 677.742188 1049.246094 C 666.398438 1051.46875 654.523438 1051.09375 643.28125 1048.53125 C 641.234375 1048.0625 640.4375 1051 642.417969 1051.660156 C 663.773438 1058.777344 693.886719 1056.300781 710.164062 1039.050781 C 711.277344 1037.867188 709.878906 1036.191406 708.476562 1036.871094 Z M 614.207031 1046.847656 C 607.5625 1042.820312 600.214844 1040.253906 593.730469 1035.875 C 586.765625 1031.171875 581.398438 1025.09375 575.027344 1019.753906 C 574.09375 1018.96875 572.789062 1019.929688 573.339844 1021.054688 C 579.882812 1034.378906 598.640625 1048.027344 613.535156 1049.324219 C 614.90625 1049.441406 615.261719 1047.488281 614.207031 1046.847656 Z M 464.542969 1058.203125 C 446.082031 1058.960938 432.628906 1049.132812 427.433594 1031.230469 C 421.992188 1012.449219 427.046875 993.203125 425.507812 974.144531 C 425.378906 972.535156 422.898438 971.945312 422.511719 973.738281 C 419.992188 985.445312 419.320312 998.183594 419.199219 1010.136719 C 419.097656 1020.324219 420.210938 1030.523438 424.296875 1039.9375 C 430.5625 1054.382812 448.777344 1070.183594 465.214844 1060.683594 C 466.328125 1060.039062 465.882812 1058.152344 464.542969 1058.203125 Z M 384.527344 870.984375 C 385.488281 871.839844 384.703125 873.453125 383.503906 873.457031 C 371.949219 873.476562 363.648438 860.449219 360.164062 850.855469 C 354.667969 835.703125 357.414062 819.558594 360.527344 804.234375 C 360.921875 802.273438 364.21875 802.71875 364.019531 804.703125 C 362.6875 818.109375 360.71875 832.648438 364.550781 845.804688 C 366.210938 851.496094 369.046875 856.96875 372.980469 861.421875 C 376.347656 865.230469 380.765625 867.652344 384.527344 870.984375 " fill-opacity="1" fill-rule="nonzero"/></g><path fill="#f6b737" d="M 526.65625 812.546875 C 521.246094 809.476562 514.949219 807.277344 508.796875 809.339844 C 506.226562 810.195312 503.253906 812.097656 501.679688 814.554688 C 497.417969 820.082031 496.9375 828.964844 499.65625 835.917969 C 504.847656 849.207031 517.0625 850.21875 527.699219 842.21875 C 532.855469 838.339844 537.15625 832.851562 536.96875 826.085938 C 536.785156 819.554688 531.921875 815.535156 526.65625 812.546875 Z M 787.609375 822.953125 C 769.445312 799.148438 734.496094 827.101562 749.976562 847.566406 C 764.277344 866.464844 804.421875 844.976562 787.609375 822.953125 Z M 537.585938 674.046875 C 526.890625 682.738281 509.347656 685.359375 502.75 670.261719 C 499.261719 662.277344 501.382812 654.359375 506.449219 648.675781 C 512.429688 636.394531 525.9375 630.625 538.515625 640.039062 C 550.652344 649.121094 548.757812 664.960938 537.585938 674.046875 " fill-opacity="1" fill-rule="nonzero"/><path fill="#ffffff" d="M 521.183594 814.652344 C 519.921875 814.59375 519.042969 816.4375 520.09375 817.289062 C 522.523438 819.261719 525.019531 820.535156 526.5 823.484375 C 527.789062 826.050781 527.484375 829.039062 528.664062 831.550781 C 528.945312 832.152344 529.800781 832.160156 530.230469 831.75 C 532.933594 829.167969 531.550781 824.273438 530.023438 821.425781 C 528.300781 818.21875 525.023438 814.828125 521.183594 814.652344 Z M 767.632812 822.6875 C 768.304688 822.125 767.953125 820.863281 767.109375 820.695312 C 752.953125 817.855469 744.945312 846.558594 762.769531 846.585938 C 763.835938 846.585938 764.210938 845.351562 763.585938 844.617188 C 762.351562 843.15625 760.789062 842.21875 759.460938 840.875 C 756.886719 838.28125 757.121094 834.503906 758.6875 831.394531 C 760.769531 827.246094 764.265625 825.511719 767.632812 822.6875 Z M 517.679688 643.449219 C 511.941406 647.238281 506.875 652.03125 507.148438 659.488281 C 507.316406 663.964844 510.328125 671.3125 515.886719 670.121094 C 516.746094 669.941406 516.984375 668.949219 516.652344 668.257812 C 514.867188 664.585938 511.605469 662.921875 511.765625 658.222656 C 511.9375 653.316406 515.5 648.335938 518.957031 645.109375 C 519.824219 644.300781 518.6875 642.785156 517.679688 643.449219 Z M 614.578125 874.730469 C 610.21875 875.207031 606.195312 877.265625 601.878906 878.144531 C 596.574219 879.230469 591.183594 879.519531 585.792969 879.152344 C 584.21875 879.050781 583.867188 881.585938 585.417969 881.917969 C 594.523438 883.863281 608.398438 884.28125 615.632812 877.265625 C 616.484375 876.4375 615.898438 874.585938 614.578125 874.730469 Z M 577.839844 816.421875 C 571.371094 824.632812 567.433594 834.503906 565.949219 844.816406 C 565.171875 850.203125 564.542969 856.117188 566.214844 861.398438 C 567.832031 866.519531 571.871094 870.140625 574.714844 874.546875 C 575.382812 875.574219 574.285156 876.621094 573.257812 876.445312 C 560.347656 874.214844 558.46875 857.480469 559.839844 847.070312 C 561.5 834.492188 565.738281 822.144531 576.273438 814.398438 C 577.566406 813.445312 578.652344 815.390625 577.839844 816.421875 " fill-opacity="1" fill-rule="nonzero"/></svg>